<svg xmlns="http://www.w3.org/2000/svg" version="1.1" xmlns:xlink="http://www.w3.org/1999/xlink" xmlns:svgjs="http://svgjs.com/svgjs" width="512" height="512" x="0" y="0" viewBox="0 0 512 512" style="enable-background:new 0 0 512 512" xml:space="preserve" class=""><g><linearGradient id="a" x1="201.892" x2="337.934" y1="108.699" y2="344.331" gradientUnits="userSpaceOnUse"><stop offset="0" stop-color="#34fba7"></stop><stop offset=".345" stop-color="#21dea3"></stop><stop offset="1" stop-color="#00ab9d"></stop></linearGradient><path fill="url(#a)" d="M512 173.2a11.083 11.083 0 0 1-11.07 11.07H385.389l-13.048 104.553a11.051 11.051 0 0 1-21.656 1.424l-22.564-87.106-26.613 114.829a11.058 11.058 0 0 1-21.684-.167l-24.555-126.359-20.106 206.866a11.043 11.043 0 0 1-21.774 1.336L178.5 242.72H11.07a11.07 11.07 0 1 1 0-22.14h176.279a11.136 11.136 0 0 1 10.921 9.255l21.619 97.293L240.633 113.7a11.01 11.01 0 0 1 10.986-10c.348 0 .7.016 1.052.05a11.123 11.123 0 0 1 9.8 8.91l29.158 150 25.12-108.36a11.054 11.054 0 0 1 21.553.034l19.251 74.329 7.079-56.816a11.1 11.1 0 0 1 10.985-9.718H500.93A11.072 11.072 0 0 1 512 173.2z" data-original="url(#a)" class=""></path></g></svg>