<svg xmlns="http://www.w3.org/2000/svg" version="1.1" xmlns:xlink="http://www.w3.org/1999/xlink" xmlns:svgjs="http://svgjs.com/svgjs" width="512" height="512" x="0" y="0" viewBox="0 0 512 512" style="enable-background:new 0 0 512 512" xml:space="preserve" class=""><g transform="matrix(1,0,0,1,8.526512829121202e-14,0)"><path fill="#ffffff" d="M512 256c0 24.18-3.35 47.57-9.62 69.74-2.59 9.175-18.418 5.405-21.975 14.131s5.155 29.949.695 38.159C437.74 457.83 353.19 512 256 512 114.62 512 0 397.38 0 256S114.62 0 256 0s256 114.62 256 256z" data-original="#524798" class="" opacity="0"></path><path fill="#f6e266" d="m468.555 111.74-42.847-74.214c-7.793-13.497-27.274-13.497-35.066 0l-42.848 74.214c-7.792 13.497 1.948 30.368 17.533 30.368h11.005v48.241c0 10.067 8.161 18.229 18.229 18.229h27.227c10.067 0 18.229-8.161 18.229-18.229v-48.241h11.005c15.585 0 25.325-16.871 17.533-30.368z" data-original="#f6e266" class="" opacity="1"></path><path fill="#ffcf70" d="M414.758 208.578h-20.192c-10.074 0-18.226-8.166-18.226-18.226v-48.244h-11.014c-15.581 0-25.323-16.882-17.532-30.367l42.855-74.219c5.897-10.204 18.472-12.705 27.621-7.458-2.949 1.677-5.536 4.163-7.444 7.458l-42.84 74.219c-7.79 13.485 1.951 30.367 17.532 30.367h10.999v48.244c.001 10.06 8.167 18.226 18.241 18.226z" data-original="#ffc250" class="" opacity="1"></path><path fill="#f6e266" d="m186.232 398.936-42.847 74.214c-7.793 13.497-27.274 13.497-35.066 0L65.47 398.936c-7.792-13.497 1.948-30.368 17.533-30.368h11.005v-51.853c0-10.067 8.161-18.229 18.229-18.229h27.227c10.067 0 18.229 8.161 18.229 18.229v51.853h11.005c15.585-.001 25.326 16.871 17.534 30.368z" data-original="#f6e266" class="" opacity="1"></path><path fill="#ffcf70" d="M132.435 298.486h-20.192c-10.074 0-18.226 8.166-18.226 18.226v51.856H83.003c-15.581 0-25.323 16.882-17.532 30.367l42.855 74.219c5.897 10.204 18.472 12.705 27.621 7.458-2.949-1.677-5.536-4.163-7.444-7.458l-42.84-74.219c-7.791-13.485 1.951-30.367 17.532-30.367h10.999v-51.856c0-10.06 8.167-18.226 18.241-18.226z" data-original="#ffc250" class="" opacity="1"></path><path fill="#e02c5a" d="m121.727 95.942-63.421 28.71-34.169-75.48c-7.928-17.513-.158-38.137 17.355-46.065 17.513-7.929 38.138-.158 46.066 17.355z" data-original="#78c2a4" class="" opacity="1"></path><path fill="#8a005e" d="M42.577 40.824c-3.313-7.317-.054-15.966 7.263-19.278a14.428 14.428 0 0 1 5.987-1.305 14.614 14.614 0 0 1 13.291 8.568l25.822 57.04-26.542 12.016z" data-original="#66b394" class="" opacity="1"></path><path fill="#e02c5a" d="m178.894 95.942 63.421 28.71 34.169-75.48c7.928-17.513.158-38.137-17.355-46.065-17.513-7.928-38.137-.158-46.065 17.355z" data-original="#78c2a4" class="" opacity="1"></path><path fill="#8a005e" d="m205.681 85.849 25.822-57.04a14.614 14.614 0 0 1 13.291-8.568c2.06 0 4.074.439 5.987 1.305 7.317 3.313 10.576 11.961 7.263 19.278l-25.821 57.04z" data-original="#66b394" class="" opacity="1"></path><path fill="#b9004b" d="m289.827 118.96-58.539-58.539c-44.723-44.723-117.233-44.723-161.956 0L10.793 118.96c-14.391 14.391-14.391 37.724 0 52.116l74.909 74.909c35.682 35.682 93.534 35.682 129.216 0l74.909-74.909c14.391-14.391 14.391-37.724 0-52.116z" data-original="#95d6a4" class="" opacity="1"></path><path fill="#e02c5a" d="M150.312 272.743c-23.382 0-46.764-8.919-64.61-26.758L10.794 171.07c-14.389-14.389-14.389-37.719 0-52.108l58.544-58.544c22.357-22.365 51.666-33.54 80.975-33.54-11.647 0-23.301 11.175-32.191 33.54L94.857 118.96c-5.728 14.389-5.728 37.719 0 52.108l29.773 74.915c7.091 17.84 16.387 26.76 25.682 26.76z" data-original="#78c2a4" class="" opacity="1"></path><g fill="#453d81"><path d="M225.936 131.973c7.362 11.027 4.391 25.935-6.636 33.297s-25.935 4.391-33.297-6.636M74.684 131.973C67.322 143 70.293 157.908 81.32 165.27s25.935 4.391 33.297-6.636" fill="#70c3d4" data-original="#453d81" class="" opacity="0"></path></g><path fill="#e02c5a" d="M173.843 181.227h-47.065c-26.535 0-48.045 21.511-48.045 48.045 0 26.535 21.511 48.045 48.045 48.045h47.065c26.535 0 48.045-21.511 48.045-48.045 0-26.534-21.511-48.045-48.045-48.045z" data-original="#78c2a4" class="" opacity="1"></path><path fill="#8a005e" d="M131.04 263.247c8.698 8.698 20.714 14.072 33.975 14.072H126.78c-13.269 0-25.284-5.374-33.975-14.072s-14.072-20.706-14.072-33.975c0-26.537 21.51-48.047 48.047-48.047h38.235c-26.53 0-48.047 21.51-48.047 48.047 0 13.269 5.381 25.277 14.072 33.975z" data-original="#66b394" class="" opacity="1"></path><path fill="#ffffff" d="M162.076 223.389h-23.532c-10.018 0-18.14-8.121-18.14-18.14 0-10.018 8.121-18.14 18.14-18.14h23.532c10.018 0 18.14 8.121 18.14 18.14s-8.121 18.14-18.14 18.14z" data-original="#524798" class="" opacity="0"></path><path fill="#70c3d4" d="M156.148 223.384h-17.603c-10.018 0-18.141-8.116-18.141-18.134 0-5.005 2.027-9.546 5.315-12.826a18.084 18.084 0 0 1 12.826-5.315h17.603a18.083 18.083 0 0 0-12.826 5.315 18.063 18.063 0 0 0-5.315 12.826c0 10.018 8.124 18.134 18.141 18.134z" data-original="#453d81" class="" opacity="0"></path><g fill="#d80a61"><path d="M300.263 317.639c-20.716-20.716-54.303-20.716-75.019 0s-20.716 54.303 0 75.019zM502.38 325.74a254.228 254.228 0 0 1-21.28 52.29l-60.39-60.39c20.72-20.72 54.3-20.72 75.02 0a53.4 53.4 0 0 1 6.65 8.1z" fill="#008a52" data-original="#d80a61" class="" opacity="1"></path></g><path fill="#2ce098" d="M434.246 255.913H286.728c-24.151 0-43.729 19.578-43.729 43.729 0 18.937 12.039 35.059 28.88 41.138l33.296 110.603h107.493l32.971-109.521c18.624-5.014 32.336-22.012 32.336-42.22 0-24.151-19.578-43.729-43.729-43.729z" data-original="#dc4261" class="" opacity="1"></path><path fill="#008a52" d="M335.85 451.382h-30.672L271.879 340.78c-8.42-3.04-15.639-8.593-20.753-15.746A43.5 43.5 0 0 1 243 299.642c0-24.146 19.579-43.725 43.725-43.725h40.905c-10.753 0-19.473 19.579-19.473 43.725 0 9.466 1.34 18.233 3.62 25.392 2.273 7.153 5.493 12.706 9.24 15.746z" data-original="#d80a61" class="" opacity="1"></path><path fill="#00b96b" d="M394.206 402.377c-15.848 0-29.256 10.444-33.719 24.825-4.462-14.381-17.87-24.825-33.718-24.825-19.495 0-35.299 15.804-35.299 35.299v31.611c0 19.495 15.804 35.299 35.299 35.299h67.437c19.495 0 35.299-15.804 35.299-35.299v-31.611c0-19.495-15.804-35.299-35.299-35.299z" data-original="#df6684" class="" opacity="1"></path><path fill="#008a52" d="M356.027 504.587h-29.259c-19.499 0-35.299-15.799-35.299-35.299v-31.612c0-9.746 3.953-18.573 10.34-24.959 6.386-6.386 15.213-10.34 24.959-10.34a35.135 35.135 0 0 1 14.626 3.167 35.438 35.438 0 0 0-10.326 7.173c-6.386 6.386-10.34 15.213-10.34 24.959v31.612c0 19.5 15.807 35.299 35.299 35.299z" data-original="#cd4971" class="" opacity="1"></path><g fill="#524798"><path d="M328.604 470.868c-6.11 0-11.064-4.953-11.064-11.064v-18.967c0-6.11 4.953-11.064 11.064-11.064 6.11 0 11.064 4.953 11.064 11.064v18.967c0 6.111-4.953 11.064-11.064 11.064zM392.37 470.868c-6.11 0-11.064-4.953-11.064-11.064v-18.967c0-6.11 4.953-11.064 11.064-11.064 6.11 0 11.064 4.953 11.064 11.064v18.967c-.001 6.111-4.954 11.064-11.064 11.064z" fill="#ffffff" data-original="#524798" class="" opacity="0"></path></g><g fill="#453d81"><path d="M426.251 344.09c6.402 9.589 3.819 22.553-5.771 28.955-9.589 6.402-22.553 3.819-28.955-5.771M294.723 344.09c-6.402 9.589-3.819 22.553 5.771 28.955 9.589 6.402 22.553 3.819 28.955-5.771" fill="#70c3d4" data-original="#453d81" class="" opacity="0"></path></g><path fill="#ffcf70" d="M511.999 201.108v46.669c0 17.587-14.257 31.844-31.844 31.844h-98.108v-11.786c0-20.988 17.014-38.001 38.001-38.001h57.969l21.19-32.525c3.78-5.802 12.792-3.125 12.792 3.799z" data-original="#ffc250" class="" opacity="1"></path><path fill="#ffa070" d="M512 230.043v17.733c0 17.586-14.26 31.846-31.846 31.846h-98.11v-11.786c0-2.027.16-4.013.467-5.953h97.643c17.586-.002 31.846-14.254 31.846-31.84z" data-original="#e7a52e" class="" opacity="1"></path><path fill="#ffcf70" d="M208.975 201.108v46.669c0 17.587 14.257 31.844 31.844 31.844h98.108v-11.786c0-20.988-17.014-38.001-38.001-38.001h-57.969l-21.19-32.525c-3.78-5.802-12.792-3.125-12.792 3.799z" data-original="#ffc250" class="" opacity="1"></path><path fill="#ffa070" d="M338.93 267.835v11.786h-98.11c-17.586 0-31.846-14.26-31.846-31.846V201.11c0-6.926 9.013-9.606 12.793-3.8l7.606 11.673v24.246c0 17.586 14.253 31.839 31.846 31.839h77.611c.066.913.1 1.84.1 2.767z" data-original="#e7a52e" class="" opacity="1"></path></g></svg>